<svg width="48" height="48" viewBox="0 0 48 48" fill="none" xmlns="http://www.w3.org/2000/svg">
<path d="M24 24.9375C20.0375 24.9375 16.8125 21.7125 16.8125 17.75C16.8125 13.7875 20.0375 10.5625 24 10.5625C27.9625 10.5625 31.1875 13.7875 31.1875 17.75C31.1875 21.7125 27.9625 24.9375 24 24.9375ZM24 12.4375C21.075 12.4375 18.6875 14.825 18.6875 17.75C18.6875 20.675 21.075 23.0625 24 23.0625C26.925 23.0625 29.3125 20.675 29.3125 17.75C29.3125 14.825 26.925 12.4375 24 12.4375Z" fill="#223D55"/>
<path d="M34.7377 37.4375C34.2252 37.4375 33.8002 37.0125 33.8002 36.5C33.8002 32.1875 29.4002 28.6875 24.0002 28.6875C18.6002 28.6875 14.2002 32.1875 14.2002 36.5C14.2002 37.0125 13.7752 37.4375 13.2627 37.4375C12.7502 37.4375 12.3252 37.0125 12.3252 36.5C12.3252 31.1625 17.5627 26.8125 24.0002 26.8125C30.4377 26.8125 35.6752 31.1625 35.6752 36.5C35.6752 37.0125 35.2502 37.4375 34.7377 37.4375Z" fill="#223D55"/>
</svg>
