<svg width="30" height="30" viewBox="0 0 30 30" fill="none" xmlns="http://www.w3.org/2000/svg">
<path fill-rule="evenodd" clip-rule="evenodd" d="M28.5 27C29.3284 27 30 27.6716 30 28.5C30 29.3284 29.3284 30 28.5 30H1.5C0.671573 30 0 29.3284 0 28.5C0 27.6716 0.671573 27 1.5 27H28.5ZM6.43934 16.9393L22.9393 0.43934C23.4801 -0.101386 24.3309 -0.14298 24.9193 0.314557L25.0607 0.43934L29.5607 4.93934C30.1014 5.48007 30.143 6.33091 29.6854 6.91935L29.5607 7.06066L13.0607 23.5607C12.8262 23.7951 12.5222 23.9439 12.1972 23.987L12 24H7.5C6.73075 24 6.09674 23.4209 6.01009 22.6749L6 22.5V18C6 17.6685 6.10975 17.3483 6.30912 17.088L6.43934 16.9393L22.9393 0.43934L6.43934 16.9393ZM24 3.62132L9 18.6213V21H11.3787L26.3787 6L24 3.62132Z" fill="#D4D6C9"/>
</svg>
